<mxfile host="app.diagrams.net" modified="2023-05-11T21:08:06.405Z" agent="Mozilla/5.0 (Windows NT 10.0; Win64; x64) AppleWebKit/537.36 (KHTML, like Gecko) Chrome/112.0.0.0 Safari/537.36" etag="LepZ9VsTzDMbT2l7hUxX" version="21.2.9" type="device">
  <diagram name="Strona-1" id="7byAD-WcIMHVOrMN8nFK">
    <mxGraphModel dx="1434" dy="1933" grid="1" gridSize="10" guides="1" tooltips="1" connect="1" arrows="1" fold="1" page="1" pageScale="1" pageWidth="827" pageHeight="1169" math="0" shadow="0">
      <root>
        <mxCell id="0" />
        <mxCell id="1" parent="0" />
        <mxCell id="MXPiYc5jeitOPeS6NGIV-16" value="" style="curved=1;endArrow=classic;html=1;rounded=0;entryX=0.62;entryY=-0.025;entryDx=0;entryDy=0;entryPerimeter=0;exitX=0.864;exitY=1.01;exitDx=0;exitDy=0;exitPerimeter=0;" parent="1" source="MXPiYc5jeitOPeS6NGIV-3" target="MXPiYc5jeitOPeS6NGIV-11" edge="1">
          <mxGeometry width="50" height="50" relative="1" as="geometry">
            <mxPoint x="827" y="230" as="sourcePoint" />
            <mxPoint x="779" y="280" as="targetPoint" />
            <Array as="points">
              <mxPoint x="790" y="250" />
              <mxPoint x="777" y="280" />
              <mxPoint x="827" y="280" />
            </Array>
          </mxGeometry>
        </mxCell>
        <mxCell id="MXPiYc5jeitOPeS6NGIV-3" value="&lt;font style=&quot;font-size: 14px;&quot;&gt;&lt;br&gt;- Debt name&lt;br style=&quot;&quot;&gt;- Debt type (1 - home, 2 - consumer, 3 - other payments)&lt;br&gt;- Debt amount&lt;br&gt;- Interest amount&lt;br&gt;- Instalments type&lt;br&gt;- Instalments amount&lt;br&gt;- Instalments quantity&lt;br&gt;- Contract date&lt;br&gt;- LoanFeeType (1 - %, 2 - money)&lt;br&gt;- LoanFeeAmount&lt;br&gt;&lt;br&gt;&lt;/font&gt;" style="rounded=1;whiteSpace=wrap;html=1;fontSize=16;" parent="1" vertex="1">
          <mxGeometry x="440" width="440" height="210" as="geometry" />
        </mxCell>
        <mxCell id="MXPiYc5jeitOPeS6NGIV-9" value="" style="endArrow=classic;html=1;rounded=0;entryX=0;entryY=0.5;entryDx=0;entryDy=0;" parent="1" edge="1">
          <mxGeometry relative="1" as="geometry">
            <mxPoint x="310" y="360" as="sourcePoint" />
            <mxPoint x="580" y="360" as="targetPoint" />
          </mxGeometry>
        </mxCell>
        <mxCell id="MXPiYc5jeitOPeS6NGIV-10" value="Show container structure" style="edgeLabel;resizable=0;html=1;align=center;verticalAlign=middle;" parent="MXPiYc5jeitOPeS6NGIV-9" connectable="0" vertex="1">
          <mxGeometry relative="1" as="geometry">
            <mxPoint x="-5" as="offset" />
          </mxGeometry>
        </mxCell>
        <mxCell id="MXPiYc5jeitOPeS6NGIV-1" value="&lt;font style=&quot;font-size: 14px;&quot;&gt;1. New debt in pocket&lt;br&gt;2. Show hidden debts in pocket&lt;br&gt;3. Update debts&lt;br&gt;4. Pocket cleaning&lt;br&gt;5. Pocket calculation&lt;br&gt;&lt;/font&gt;" style="rounded=1;whiteSpace=wrap;html=1;labelPosition=center;verticalLabelPosition=middle;align=center;verticalAlign=middle;" parent="1" vertex="1">
          <mxGeometry x="40" y="310" width="270" height="140" as="geometry" />
        </mxCell>
        <mxCell id="MXPiYc5jeitOPeS6NGIV-11" value="Examples:&lt;br&gt;1. Alior Bank home loan&lt;br&gt;2. BNP Paribas consumer loan&lt;br&gt;3. Furnitures&lt;br&gt;4. Coffee Maker" style="rounded=1;whiteSpace=wrap;html=1;" parent="1" vertex="1">
          <mxGeometry x="580" y="340" width="300" height="80" as="geometry" />
        </mxCell>
        <mxCell id="MXPiYc5jeitOPeS6NGIV-13" value="List container with lists" style="text;html=1;strokeColor=none;fillColor=none;align=center;verticalAlign=middle;whiteSpace=wrap;rounded=0;" parent="1" vertex="1">
          <mxGeometry x="740" y="430" width="90" height="30" as="geometry" />
        </mxCell>
        <mxCell id="MXPiYc5jeitOPeS6NGIV-18" value="Transfer new list with data" style="text;html=1;strokeColor=none;fillColor=none;align=center;verticalAlign=middle;whiteSpace=wrap;rounded=0;" parent="1" vertex="1">
          <mxGeometry x="690" y="250" width="80" height="40" as="geometry" />
        </mxCell>
        <mxCell id="MXPiYc5jeitOPeS6NGIV-20" value="Retrieve information from the user:" style="text;html=1;strokeColor=none;fillColor=none;align=center;verticalAlign=middle;whiteSpace=wrap;rounded=0;" parent="1" vertex="1">
          <mxGeometry x="200" y="170" width="110" height="30" as="geometry" />
        </mxCell>
        <mxCell id="MXPiYc5jeitOPeS6NGIV-21" value="" style="endArrow=classic;html=1;rounded=0;entryX=0;entryY=0.5;entryDx=0;entryDy=0;" parent="1" edge="1">
          <mxGeometry relative="1" as="geometry">
            <mxPoint x="310" y="379.5" as="sourcePoint" />
            <mxPoint x="580" y="379.5" as="targetPoint" />
          </mxGeometry>
        </mxCell>
        <mxCell id="MXPiYc5jeitOPeS6NGIV-22" value="Show container structure + choose debt to update" style="edgeLabel;resizable=0;html=1;align=center;verticalAlign=middle;" parent="MXPiYc5jeitOPeS6NGIV-21" connectable="0" vertex="1">
          <mxGeometry relative="1" as="geometry">
            <mxPoint x="-5" as="offset" />
          </mxGeometry>
        </mxCell>
        <mxCell id="MXPiYc5jeitOPeS6NGIV-23" value="" style="endArrow=classic;html=1;rounded=0;entryX=0;entryY=0.5;entryDx=0;entryDy=0;" parent="1" edge="1">
          <mxGeometry relative="1" as="geometry">
            <mxPoint x="310" y="400" as="sourcePoint" />
            <mxPoint x="580" y="400" as="targetPoint" />
          </mxGeometry>
        </mxCell>
        <mxCell id="MXPiYc5jeitOPeS6NGIV-24" value="Show container structure + choose debt to remove" style="edgeLabel;resizable=0;html=1;align=center;verticalAlign=middle;" parent="MXPiYc5jeitOPeS6NGIV-23" connectable="0" vertex="1">
          <mxGeometry relative="1" as="geometry">
            <mxPoint x="-5" as="offset" />
          </mxGeometry>
        </mxCell>
        <mxCell id="MXPiYc5jeitOPeS6NGIV-29" value="" style="edgeStyle=elbowEdgeStyle;elbow=horizontal;endArrow=classic;html=1;curved=0;rounded=0;endSize=8;startSize=8;entryX=0.007;entryY=0.533;entryDx=0;entryDy=0;entryPerimeter=0;exitX=1;exitY=0.25;exitDx=0;exitDy=0;" parent="1" source="MXPiYc5jeitOPeS6NGIV-1" target="MXPiYc5jeitOPeS6NGIV-3" edge="1">
          <mxGeometry width="50" height="50" relative="1" as="geometry">
            <mxPoint x="310" y="350" as="sourcePoint" />
            <mxPoint x="360" y="300" as="targetPoint" />
            <Array as="points">
              <mxPoint x="330" y="320" />
            </Array>
          </mxGeometry>
        </mxCell>
        <mxCell id="MXPiYc5jeitOPeS6NGIV-30" value="- Whole pocket balance&lt;br&gt;- Sum of all payments&lt;br&gt;- Sum of capital&lt;br&gt;- Sum of rates&lt;br&gt;- Overpayments" style="rounded=1;whiteSpace=wrap;html=1;" parent="1" vertex="1">
          <mxGeometry x="400" y="537" width="180" height="95" as="geometry" />
        </mxCell>
        <mxCell id="MXPiYc5jeitOPeS6NGIV-31" value="" style="edgeStyle=elbowEdgeStyle;elbow=horizontal;endArrow=classic;html=1;curved=0;rounded=0;endSize=8;startSize=8;" parent="1" edge="1">
          <mxGeometry width="50" height="50" relative="1" as="geometry">
            <mxPoint x="310" y="420" as="sourcePoint" />
            <mxPoint x="400" y="585" as="targetPoint" />
          </mxGeometry>
        </mxCell>
        <mxCell id="MXPiYc5jeitOPeS6NGIV-32" value="" style="curved=1;endArrow=classic;html=1;rounded=0;entryX=0.62;entryY=-0.025;entryDx=0;entryDy=0;entryPerimeter=0;exitX=0.864;exitY=1.01;exitDx=0;exitDy=0;exitPerimeter=0;" parent="1" edge="1">
          <mxGeometry width="50" height="50" relative="1" as="geometry">
            <mxPoint x="634" y="420" as="sourcePoint" />
            <mxPoint x="580" y="546" as="targetPoint" />
            <Array as="points">
              <mxPoint x="604" y="458" />
              <mxPoint x="591" y="488" />
              <mxPoint x="641" y="488" />
            </Array>
          </mxGeometry>
        </mxCell>
        <mxCell id="MXPiYc5jeitOPeS6NGIV-33" value="Transfer data to execution calculations" style="text;html=1;strokeColor=none;fillColor=none;align=center;verticalAlign=middle;whiteSpace=wrap;rounded=0;" parent="1" vertex="1">
          <mxGeometry x="510" y="460" width="80" height="40" as="geometry" />
        </mxCell>
        <mxCell id="MXPiYc5jeitOPeS6NGIV-34" value="Debts schedule" style="rounded=1;whiteSpace=wrap;html=1;" parent="1" vertex="1">
          <mxGeometry x="410" y="680" width="160" height="60" as="geometry" />
        </mxCell>
        <mxCell id="MXPiYc5jeitOPeS6NGIV-35" value="" style="endArrow=classic;html=1;rounded=0;entryX=0.5;entryY=0;entryDx=0;entryDy=0;exitX=0.5;exitY=1;exitDx=0;exitDy=0;" parent="1" source="MXPiYc5jeitOPeS6NGIV-30" target="MXPiYc5jeitOPeS6NGIV-34" edge="1">
          <mxGeometry width="50" height="50" relative="1" as="geometry">
            <mxPoint x="390" y="430" as="sourcePoint" />
            <mxPoint x="440" y="380" as="targetPoint" />
          </mxGeometry>
        </mxCell>
      </root>
    </mxGraphModel>
  </diagram>
</mxfile>
